<mxfile host="app.diagrams.net" modified="2022-08-09T08:03:04.722Z" agent="5.0 (Windows NT 10.0; Win64; x64) AppleWebKit/537.36 (KHTML, like Gecko) Chrome/103.0.5060.134 Safari/537.36 Edg/103.0.1264.77" etag="WvND5APdSBwYEslaJ-MS" version="20.2.2" type="github">
  <diagram id="63liZBFM_JSA3xeSQC1C" name="Page-1">
    <mxGraphModel dx="865" dy="449" grid="1" gridSize="10" guides="1" tooltips="1" connect="1" arrows="1" fold="1" page="1" pageScale="1" pageWidth="850" pageHeight="1100" math="0" shadow="0">
      <root>
        <mxCell id="0" />
        <mxCell id="1" parent="0" />
        <mxCell id="UvX-u8pO6RNbhd-vVA79-1" value="Result Analysis and Comparison" style="rounded=0;whiteSpace=wrap;html=1;fontStyle=1;fontSize=12;" parent="1" vertex="1">
          <mxGeometry x="40" y="400" width="120" height="60" as="geometry" />
        </mxCell>
        <mxCell id="UvX-u8pO6RNbhd-vVA79-17" value="" style="edgeStyle=orthogonalEdgeStyle;rounded=0;orthogonalLoop=1;jettySize=auto;html=1;fontFamily=Times New Roman;fontSize=12;fontStyle=1" parent="1" source="UvX-u8pO6RNbhd-vVA79-2" target="UvX-u8pO6RNbhd-vVA79-1" edge="1">
          <mxGeometry relative="1" as="geometry" />
        </mxCell>
        <mxCell id="UvX-u8pO6RNbhd-vVA79-2" value="Evaluation on Test Set" style="rounded=0;whiteSpace=wrap;html=1;fontStyle=1;fontSize=12;" parent="1" vertex="1">
          <mxGeometry x="220" y="400" width="120" height="60" as="geometry" />
        </mxCell>
        <mxCell id="UvX-u8pO6RNbhd-vVA79-16" value="" style="edgeStyle=orthogonalEdgeStyle;rounded=0;orthogonalLoop=1;jettySize=auto;html=1;fontFamily=Times New Roman;fontSize=12;fontStyle=1" parent="1" source="UvX-u8pO6RNbhd-vVA79-3" target="UvX-u8pO6RNbhd-vVA79-2" edge="1">
          <mxGeometry relative="1" as="geometry" />
        </mxCell>
        <mxCell id="UvX-u8pO6RNbhd-vVA79-3" value="Fine-tuning hyperparameters based on validation set" style="rounded=0;whiteSpace=wrap;html=1;fontStyle=1;fontSize=12;" parent="1" vertex="1">
          <mxGeometry x="395" y="400" width="120" height="60" as="geometry" />
        </mxCell>
        <mxCell id="UvX-u8pO6RNbhd-vVA79-15" value="" style="edgeStyle=orthogonalEdgeStyle;rounded=0;orthogonalLoop=1;jettySize=auto;html=1;fontFamily=Times New Roman;fontSize=12;fontStyle=1" parent="1" source="UvX-u8pO6RNbhd-vVA79-4" target="UvX-u8pO6RNbhd-vVA79-3" edge="1">
          <mxGeometry relative="1" as="geometry" />
        </mxCell>
        <mxCell id="UvX-u8pO6RNbhd-vVA79-4" value="Training YOLOv5, YOLOX, Faster R-CNN" style="rounded=0;whiteSpace=wrap;html=1;fontStyle=1;fontSize=12;" parent="1" vertex="1">
          <mxGeometry x="560" y="400" width="120" height="60" as="geometry" />
        </mxCell>
        <mxCell id="UvX-u8pO6RNbhd-vVA79-14" value="" style="edgeStyle=orthogonalEdgeStyle;rounded=0;orthogonalLoop=1;jettySize=auto;html=1;fontFamily=Times New Roman;fontSize=12;fontStyle=1" parent="1" source="UvX-u8pO6RNbhd-vVA79-5" target="UvX-u8pO6RNbhd-vVA79-4" edge="1">
          <mxGeometry relative="1" as="geometry" />
        </mxCell>
        <mxCell id="UvX-u8pO6RNbhd-vVA79-5" value="Train Set Data Augmentation" style="rounded=0;whiteSpace=wrap;html=1;fontStyle=1;fontSize=12;" parent="1" vertex="1">
          <mxGeometry x="560" y="290" width="120" height="60" as="geometry" />
        </mxCell>
        <mxCell id="UvX-u8pO6RNbhd-vVA79-13" value="" style="edgeStyle=orthogonalEdgeStyle;rounded=0;orthogonalLoop=1;jettySize=auto;html=1;fontFamily=Times New Roman;fontSize=12;fontStyle=1" parent="1" source="UvX-u8pO6RNbhd-vVA79-6" target="UvX-u8pO6RNbhd-vVA79-5" edge="1">
          <mxGeometry relative="1" as="geometry" />
        </mxCell>
        <mxCell id="UvX-u8pO6RNbhd-vVA79-6" value="Data Preprocessing" style="rounded=0;whiteSpace=wrap;html=1;fontStyle=1;fontSize=12;" parent="1" vertex="1">
          <mxGeometry x="570" y="170" width="100" height="60" as="geometry" />
        </mxCell>
        <mxCell id="UvX-u8pO6RNbhd-vVA79-12" value="" style="edgeStyle=orthogonalEdgeStyle;rounded=0;orthogonalLoop=1;jettySize=auto;html=1;fontFamily=Times New Roman;fontSize=12;fontStyle=1" parent="1" source="UvX-u8pO6RNbhd-vVA79-7" target="UvX-u8pO6RNbhd-vVA79-6" edge="1">
          <mxGeometry relative="1" as="geometry" />
        </mxCell>
        <mxCell id="UvX-u8pO6RNbhd-vVA79-7" value="Train-Valid-Test Split" style="rounded=0;whiteSpace=wrap;html=1;fontStyle=1;fontSize=12;" parent="1" vertex="1">
          <mxGeometry x="400" y="170" width="110" height="60" as="geometry" />
        </mxCell>
        <mxCell id="UvX-u8pO6RNbhd-vVA79-11" value="" style="edgeStyle=orthogonalEdgeStyle;rounded=0;orthogonalLoop=1;jettySize=auto;html=1;fontFamily=Times New Roman;fontSize=12;fontStyle=1" parent="1" source="UvX-u8pO6RNbhd-vVA79-8" target="UvX-u8pO6RNbhd-vVA79-7" edge="1">
          <mxGeometry relative="1" as="geometry" />
        </mxCell>
        <mxCell id="UvX-u8pO6RNbhd-vVA79-8" value="Annotation" style="rounded=0;whiteSpace=wrap;html=1;fontStyle=1;fontSize=12;" parent="1" vertex="1">
          <mxGeometry x="220" y="170" width="120" height="60" as="geometry" />
        </mxCell>
        <mxCell id="UvX-u8pO6RNbhd-vVA79-10" value="" style="edgeStyle=orthogonalEdgeStyle;rounded=0;orthogonalLoop=1;jettySize=auto;html=1;fontFamily=Times New Roman;fontSize=12;fontStyle=1" parent="1" source="UvX-u8pO6RNbhd-vVA79-9" target="UvX-u8pO6RNbhd-vVA79-8" edge="1">
          <mxGeometry relative="1" as="geometry" />
        </mxCell>
        <mxCell id="UvX-u8pO6RNbhd-vVA79-9" value="&lt;font style=&quot;font-size: 12px;&quot; face=&quot;Times New Roman&quot;&gt;Data Collection&lt;/font&gt;" style="rounded=0;whiteSpace=wrap;html=1;fontStyle=1;fontSize=12;" parent="1" vertex="1">
          <mxGeometry x="40" y="170" width="120" height="60" as="geometry" />
        </mxCell>
      </root>
    </mxGraphModel>
  </diagram>
</mxfile>
